<?xml version="1.0" encoding="UTF-8"?>
<svg width="150px" height="50px" viewBox="0 0 150 50" version="1.1" xmlns="http://www.w3.org/2000/svg" xmlns:xlink="http://www.w3.org/1999/xlink">
    <!-- Generator: Sketch 47.1 (45422) - http://www.bohemiancoding.com/sketch -->
    <title>logo</title>
    <desc>Created with Sketch.</desc>
    <defs>
        <linearGradient x1="100%" y1="74.3284377%" x2="0%" y2="26.3424128%" id="linearGradient-1">
            <stop stop-color="#2B6DF1" offset="0%"></stop>
            <stop stop-color="#00C4D5" offset="100%"></stop>
        </linearGradient>
    </defs>
    <g id="Symbols" stroke="none" stroke-width="1" fill="none" fill-rule="evenodd">
        <g id="logo" fill-rule="nonzero">
            <path d="M19.3447378,15.208082 L14.5,12.4515932 L3,18.9946967 L3,24.5974526 L19.3447378,15.208082 Z M22.3705378,16.9296579 L3,28.0572244 L3,32.0053033 L14.5,38.5484068 L26,32.0053033 L26,18.9946967 L22.3705378,16.9296579 Z M14.5,9 L29,17.25 L29,33.75 L14.5,42 L3.33943274e-14,33.75 L0,17.25 L14.5,9 Z" id="Polygon-3-Copy" fill="url(#linearGradient-1)"></path>
            <path d="M39.63,30.276 C39.63,31.4016326 40.1023229,31.822 41.228,31.822 C41.8017255,31.822 42.3317786,31.7438869 43.0365175,31.523656 L43.426,31.4019427 L43.426,33.801788 L43.2114911,33.8655609 C42.3255266,34.1289557 41.5475161,34.242 40.838,34.242 C38.2589176,34.242 36.924,32.9429673 36.924,30.38 L36.924,22.594 L35,22.594 L35,20.356 L36.924,20.356 L36.924,17.028 L39.656,17.028 L39.656,20.356 L43.426,20.356 L43.426,22.594 L39.63,22.594 L39.63,30.276 Z M52.424,20.07 C52.8287238,20.07 53.1984516,20.10488 53.5107607,20.1829572 L53.738,20.2397671 L53.738,22.8342329 L53.3652393,22.7410428 C53.1187857,22.6794293 52.7109477,22.646 52.32,22.646 C50.1962993,22.646 48.642,24.3859899 48.642,27.286 L48.642,34.034 L45.884,34.034 L45.884,20.356 L48.564,20.356 L48.564,22.2612237 C49.3955168,20.8783991 50.7974219,20.07 52.424,20.07 Z M60.864,32.03 C62.4569477,32.03 63.4399581,31.299928 63.9603387,29.7883461 L64.0299989,29.586 L66.6433384,29.586 L66.5653005,29.9490459 C65.9685405,32.7252776 63.723878,34.346 60.864,34.346 C56.9254254,34.346 54.272,31.5529206 54.272,27.26 C54.272,22.9586553 56.9648881,20.044 60.734,20.044 C64.471304,20.044 66.65,22.869376 66.65,26.792 L66.65,27.95 L56.9942322,27.95 C57.1828689,30.5756702 58.5908297,32.03 60.864,32.03 Z M60.734,22.386 C58.8402876,22.386 57.5153333,23.5743136 57.1075601,25.79 L63.9301982,25.79 C63.7860075,23.6765977 62.6591653,22.386 60.734,22.386 Z M68.3290363,29.8849136 L68.3019601,29.56 L70.9830451,29.56 L71.0068722,29.8340111 C71.1335256,31.2905262 72.4337595,32.108 74.296,32.108 C75.9967664,32.108 77.09,31.3446772 77.09,30.172 C77.09,29.3371276 76.5224109,28.8455549 75.0425299,28.5680464 L72.7333732,28.1009846 C70.1659423,27.6255344 68.848,26.5062769 68.848,24.27 C68.848,21.8373973 71.0215645,20.044 74.01,20.044 C77.1975882,20.044 79.1551689,21.4683591 79.4303516,24.0825946 L79.4652364,24.414 L76.8632251,24.414 L76.8320548,24.1490524 C76.6966109,22.9977793 75.6712632,22.308 74.01,22.308 C72.4298438,22.308 71.45,23.0444839 71.45,24.14 C71.45,25.0146545 71.9996198,25.4338561 73.4939982,25.7172727 L76.0954531,26.2115528 C78.4835652,26.6775259 79.718,27.9050257 79.718,30.068 C79.718,32.5420598 77.4092875,34.346 74.322,34.346 C70.8855035,34.346 68.5669846,32.7402944 68.3290363,29.8849136 Z M94.528,27.208 C94.528,31.4982334 91.8758217,34.346 88.014,34.346 C84.1521782,34.346 81.5,31.4982334 81.5,27.208 C81.5,22.912772 84.1571412,20.044 88.014,20.044 C91.8708587,20.044 94.528,22.912772 94.528,27.208 Z M84.232,27.208 C84.232,30.2140599 85.6586681,32.004 88.014,32.004 C90.3693319,32.004 91.796,30.2140599 91.796,27.208 C91.796,24.1957016 90.3641482,22.386 88.014,22.386 C85.6638518,22.386 84.232,24.1957016 84.232,27.208 Z M103.734,20.07 C104.138724,20.07 104.508452,20.10488 104.820761,20.1829572 L105.048,20.2397671 L105.048,22.8342329 L104.675239,22.7410428 C104.428786,22.6794293 104.020948,22.646 103.63,22.646 C101.506299,22.646 99.952,24.3859899 99.952,27.286 L99.952,34.034 L97.194,34.034 L97.194,20.356 L99.874,20.356 L99.874,22.2612237 C100.705517,20.8783991 102.107422,20.07 103.734,20.07 Z M106.648,18.226 L106.648,15 L109.692,15 L109.692,18.226 L106.648,18.226 Z M106.804,34.034 L106.804,20.356 L109.562,20.356 L109.562,34.034 L106.804,34.034 Z M116.078,30.276 C116.078,31.4016326 116.550323,31.822 117.676,31.822 C118.249725,31.822 118.779779,31.7438869 119.484517,31.523656 L119.874,31.4019427 L119.874,33.801788 L119.659491,33.8655609 C118.773527,34.1289557 117.995516,34.242 117.286,34.242 C114.706918,34.242 113.372,32.9429673 113.372,30.38 L113.372,22.594 L111.448,22.594 L111.448,20.356 L113.372,20.356 L113.372,17.028 L116.104,17.028 L116.104,20.356 L119.874,20.356 L119.874,22.594 L116.078,22.594 L116.078,30.276 Z" id="tresorit-copy-3" fill="#334455"></path>
        </g>
    </g>
</svg>
